<?xml version="1.0" standalone="no"?>
<!DOCTYPE svg PUBLIC "-//W3C//DTD SVG 20010904//EN"
 "http://www.w3.org/TR/2001/REC-SVG-20010904/DTD/svg10.dtd">
<svg version="1.0" xmlns="http://www.w3.org/2000/svg"
 width="990.000000pt" height="990.000000pt" viewBox="0 0 990.000000 990.000000"
 preserveAspectRatio="xMidYMid meet">
<metadata>
Created by potrace 1.14, written by Peter Selinger 2001-2017
</metadata>
<g transform="translate(0.000000,990.000000) scale(0.100000,-0.100000)"
fill="#000000" stroke="none">
<path d="M5333 9859 c-11 -24 -46 -75 -77 -114 -92 -112 -176 -223 -176 -232
0 -4 -9 -16 -20 -28 -11 -11 -41 -51 -67 -90 -60 -91 -213 -297 -283 -382 -6
-7 -54 -79 -107 -160 -82 -126 -227 -332 -271 -383 -6 -8 -12 -18 -12 -22 0
-4 -10 -18 -23 -31 -12 -13 -50 -64 -85 -113 -104 -146 -232 -325 -286 -396
-76 -100 -143 -193 -369 -513 -195 -274 -295 -414 -307 -425 -12 -11 -330
-451 -391 -540 -35 -52 -69 -102 -76 -110 -82 -100 -113 -144 -111 -153 1 -7
-2 -28 -7 -47 -13 -56 -10 -3309 4 -3323 19 -19 41 -16 66 11 21 22 119 158
178 246 6 10 26 37 43 60 17 22 52 73 79 111 51 73 165 236 187 268 7 10 33
47 58 81 25 35 63 89 85 120 65 93 188 261 194 266 3 3 19 23 36 45 16 22 32
42 35 45 8 7 138 183 180 245 19 28 37 52 40 55 3 3 18 25 35 50 16 25 75 108
130 185 56 77 161 226 235 330 73 105 136 192 139 195 3 3 22 28 41 55 19 28
40 56 47 63 7 7 13 16 13 20 0 4 14 23 30 42 16 19 30 38 30 42 0 4 6 13 13
20 13 14 160 213 309 421 48 67 91 127 95 132 48 61 173 244 173 254 0 5 3 11
8 13 4 2 21 23 37 48 17 25 36 51 43 58 6 7 12 16 12 20 0 4 16 24 35 45 19
21 47 64 62 95 l27 57 1 1693 c0 932 -3 1699 -6 1704 -4 6 -16 -9 -26 -33z"/>
<path d="M6855 7390 c-16 -16 -26 -30 -22 -30 3 0 -6 -13 -21 -28 -39 -41 -72
-81 -72 -88 0 -2 -10 -15 -22 -28 -31 -31 -57 -69 -57 -80 1 -5 -4 -12 -9 -15
-11 -7 -94 -141 -87 -141 2 0 -7 -12 -20 -26 -14 -15 -22 -30 -19 -35 3 -5 1
-9 -4 -9 -11 0 -55 -60 -55 -76 0 -7 -4 -11 -9 -8 -4 3 -11 -3 -15 -13 -4 -10
-17 -29 -30 -43 -13 -14 -26 -33 -29 -42 -3 -10 -10 -18 -15 -18 -5 0 -9 -7
-9 -15 0 -8 -4 -15 -9 -15 -12 0 -84 -101 -84 -117 0 -7 -3 -10 -6 -8 -7 4
-54 -60 -51 -70 1 -4 -7 -14 -17 -23 -25 -24 -73 -89 -73 -100 0 -6 -7 -13
-16 -16 -9 -4 -14 -9 -11 -12 3 -3 -2 -14 -11 -24 -33 -36 -42 -49 -42 -60 0
-5 -4 -10 -10 -10 -5 0 -17 -14 -26 -32 -9 -18 -22 -37 -28 -44 -6 -6 -29 -37
-51 -68 -22 -31 -52 -71 -67 -89 -15 -18 -28 -37 -28 -43 0 -7 -7 -14 -15 -18
-8 -3 -15 -10 -15 -16 0 -6 -6 -18 -14 -26 -28 -28 -161 -217 -158 -225 1 -5
-5 -9 -14 -9 -8 0 -13 -4 -9 -9 3 -6 0 -13 -8 -18 -7 -4 -21 -21 -31 -38 -11
-16 -23 -34 -28 -40 -32 -39 -150 -209 -183 -263 -5 -10 -12 -19 -15 -22 -3
-3 -21 -27 -40 -53 -19 -27 -45 -59 -57 -72 -13 -13 -23 -29 -23 -35 0 -5 -4
-10 -10 -10 -5 0 -10 -7 -10 -15 0 -8 -4 -15 -9 -15 -5 0 -12 -8 -15 -17 -3
-10 -17 -30 -32 -46 -14 -15 -46 -62 -71 -104 -24 -42 -68 -103 -96 -136 -50
-57 -134 -180 -177 -259 -11 -21 -26 -38 -32 -38 -6 0 -9 -3 -5 -6 5 -5 -5
-20 -38 -58 -60 -68 -105 -126 -105 -134 0 -6 -3 -12 -8 -14 -16 -7 -82 -95
-75 -101 3 -4 2 -7 -4 -7 -6 0 -23 -19 -39 -42 -16 -24 -31 -45 -34 -48 -15
-15 -60 -80 -56 -80 4 0 -2 -9 -11 -19 -49 -54 -103 -137 -95 -146 4 -3 2 -5
-3 -3 -6 2 -11 0 -12 -5 -2 -4 -11 -16 -20 -26 -33 -37 -43 -50 -43 -61 0 -5
-4 -10 -9 -10 -5 0 -14 -14 -20 -32 -15 -42 -16 -3438 -1 -3438 6 0 44 53 86
118 42 64 88 131 104 147 37 40 122 165 113 165 -5 0 -3 4 3 8 17 12 67 82 58
82 -4 0 1 7 12 15 10 8 16 15 12 15 -4 0 3 10 15 23 12 13 29 33 37 46 8 13
22 31 31 41 8 10 24 31 35 46 10 14 27 36 36 48 56 67 165 225 161 230 -4 3
-1 6 4 6 6 0 30 27 52 60 23 33 47 68 55 77 44 54 85 113 78 113 -4 0 1 5 11
11 9 6 15 14 12 20 -4 5 -2 9 4 9 5 0 25 21 43 48 18 26 40 56 50 66 10 11 18
25 18 32 0 7 3 14 8 16 10 4 89 114 196 273 46 67 47 68 81 110 14 17 42 55
62 85 21 30 40 57 44 60 3 3 20 28 39 55 19 28 38 53 44 57 6 4 7 8 3 8 -4 0
2 10 13 23 12 12 29 34 38 50 9 15 20 27 24 27 4 0 8 5 8 10 0 6 5 16 10 23
47 55 60 74 60 83 0 7 7 14 15 18 8 3 15 12 15 21 0 8 3 15 8 15 4 0 20 23 37
50 16 28 33 50 38 50 4 0 6 4 3 9 -4 5 -2 11 2 13 4 1 23 24 40 50 18 25 38
52 45 60 7 7 45 58 84 113 40 55 76 105 80 110 31 37 51 73 46 79 -3 3 -1 6 5
6 7 0 24 19 39 43 16 23 32 47 36 52 48 59 117 161 117 172 0 8 4 12 8 9 4 -2
21 16 37 42 16 26 32 49 35 52 14 13 60 80 55 80 -3 0 4 10 15 23 46 50 79
100 73 111 -3 6 -3 8 2 4 8 -8 112 121 108 134 -2 4 1 8 7 8 13 0 78 99 82
125 2 11 7 23 12 26 12 9 11 3368 -1 3380 -6 6 -20 -2 -38 -21z"/>
</g>
</svg>
